<?xml version="1.0" encoding="UTF-8"?>
<svg width="506px" height="103px" viewBox="0 0 506 103" version="1.1" xmlns="http://www.w3.org/2000/svg" xmlns:xlink="http://www.w3.org/1999/xlink">
    <!-- Generator: Sketch 49.3 (51167) - http://www.bohemiancoding.com/sketch -->
    <title>Group 9</title>
    <desc>Created with Sketch.</desc>
    <defs>
        <polygon id="path-1" points="0.9296 82.8263 13.5256 82.8263 13.5256 102.947 0.9296 102.947"></polygon>
        <polygon id="path-3" points="15.822 87.9274 29.311 87.9274 29.311 102.947 15.822 102.947"></polygon>
        <polygon id="path-5" points="31.3242 87.9275 46.3472 87.9275 46.3472 102.947 31.3242 102.947"></polygon>
        <polygon id="path-7" points="-1 102.947 504.984 102.947 504.984 0 -1 0"></polygon>
    </defs>
    <g id="181204" stroke="none" stroke-width="1" fill="none" fill-rule="evenodd">
        <g id="Group-9" transform="translate(1.000000, 0.000000)">
            <path d="M485.084,28.822 C478.772,29.785 469.51,30.334 463.877,30.402 L458.939,30.47 L458.939,11.943 L477.949,11.943 L477.949,5.217 L450.91,5.217 L450.91,36.992 L462.775,36.918 C467.861,36.918 480.211,36.095 485.084,35.136 L485.084,28.822 Z M461.75,44.605 L461.75,64.439 L497.229,64.439 L497.229,57.783 L469.777,57.783 L469.777,44.605 L461.75,44.605 Z M496.268,19.631 L496.268,2.465 L488.307,2.465 L488.307,47.9 L496.268,47.9 L496.268,26.355 L504.984,26.355 L504.984,19.631 L496.268,19.631 Z M430.115,19.353 L424.486,19.353 L424.486,3.57 L416.936,3.57 L416.936,54.834 L424.486,54.834 L424.486,26.627 L430.115,26.627 L430.115,56.418 L437.936,56.418 L437.936,2.605 L430.115,2.605 L430.115,19.353 Z M397.035,12.767 L397.035,15.168 C397.035,19.215 396.346,23.955 394.973,27.041 C393.332,30.881 389.969,35 385.299,38.912 L390.17,43.648 C393.467,41.248 395.457,39.121 397.441,36.646 C399.365,34.248 400.875,32.117 401.289,31.16 C401.699,32.117 403.143,34.177 405.064,36.443 C406.982,38.775 408.904,40.765 411.932,42.752 L415.977,38.021 C411.857,34.449 408.77,30.744 407.262,27.455 C405.684,24.16 404.924,19.353 404.924,15.029 L404.924,12.767 L413.299,12.767 L413.299,5.967 L388.383,5.967 L388.383,12.767 L397.035,12.767 Z M372.807,26.281 L372.807,2.605 L364.914,2.605 L364.914,55.724 L372.807,55.724 L372.807,32.941 L381.455,32.941 L381.455,26.281 L372.807,26.281 Z M350.299,22.578 C350.299,26.424 346.936,29.718 343.502,29.718 C340.074,29.718 336.713,26.424 336.713,22.578 C336.713,18.668 340.074,15.371 343.502,15.371 C346.936,15.371 350.299,18.668 350.299,22.578 Z M347.828,7.343 L347.828,0.619 L339.594,0.619 L339.594,7.343 L326.689,7.343 L326.689,13.797 L333.281,13.797 C331.012,16.129 329.504,19.285 329.504,22.783 C329.504,28.894 333.482,34.043 339.182,35.754 L339.182,40.42 C336.984,40.42 334.924,40.492 333.006,40.492 L324.359,40.492 L324.359,46.873 L335.404,46.808 C344.26,46.736 357.299,45.842 362.717,45.088 L362.717,38.843 C359.219,39.254 353.525,39.666 347.555,40.08 L347.555,35.824 C353.459,34.177 357.574,28.961 357.574,22.783 C357.574,19.285 356.066,16.129 353.731,13.797 L359.979,13.797 L359.979,7.343 L347.828,7.343 Z M280.576,21.546 L299.857,21.546 L299.857,10.771 L280.576,10.771 L280.576,21.546 Z M272.541,27.935 L308.088,27.935 L308.088,4.392 L272.541,4.392 L272.541,27.935 Z M272.27,44.47 L272.27,64.306 L309.4,64.306 L309.4,57.648 L280.576,57.648 L280.576,44.47 L272.27,44.47 Z M287.504,40.011 L287.504,51.47 L295.811,51.47 L295.811,40.011 L318.871,40.011 L318.871,33.49 L262.182,33.49 L262.182,40.011 L287.504,40.011 Z M220.809,14.07 C220.809,9.816 224.307,6.517 228.633,6.517 C232.945,6.517 236.443,9.816 236.443,14.07 C236.443,18.254 232.881,21.687 228.633,21.687 C224.371,21.687 220.809,18.254 220.809,14.07 Z M228.633,0 C220.119,0 213.258,6.379 213.258,14.07 C213.258,21.822 220.119,28.136 228.633,28.136 C237.129,28.136 243.994,21.822 243.994,14.07 C243.994,6.379 237.129,0 228.633,0 Z M224.512,36.031 L224.512,40.011 L210.924,40.011 L210.924,46.187 L237.75,46.187 L237.75,49.275 L210.924,49.275 L210.924,64.51 L247.356,64.51 L247.356,58.267 L219.438,58.267 L219.438,55.107 L246.19,55.107 L246.19,40.011 L232.945,40.011 L232.945,36.031 L257.652,36.031 L257.652,29.785 L199.805,29.785 L199.805,36.031 L224.512,36.031 Z M176.82,37.06 C171.672,33.832 167.826,30.058 165.699,26.008 C163.639,22.236 162.541,16.672 162.541,11.119 L162.541,5.146 L154.236,5.146 L154.236,11.459 C154.236,16.607 153.346,21.758 151.424,25.392 C149.293,29.437 144.695,34.308 139.205,38.088 L144.217,43.172 C146.824,41.515 149.982,38.912 152.727,36.166 C155.201,33.769 157.326,31.226 158.492,29.166 C159.795,31.504 162.063,34.107 164.604,36.509 C167.072,38.843 169.885,40.97 172.219,42.273 L176.82,37.06 Z M181.553,16.197 L169.955,16.197 L169.955,22.994 L181.553,22.994 L181.553,55.933 L189.582,55.933 L189.582,2.537 L181.553,2.537 L181.553,16.197 Z" id="Fill-1" fill="#017CE5"></path>
            <mask id="mask-2" fill="white">
                <use xlink:href="#path-1"></use>
            </mask>
            <g id="Clip-4"></g>
            <path d="M12.0196,86.7283 C10.7966,86.1973 9.4296,85.8883 8.0646,85.8883 C6.7286,85.8883 4.9946,86.4783 4.9946,88.5973 C4.9946,91.9683 13.5256,90.5463 13.5256,97.0683 C13.5256,101.3333 10.1526,102.9473 6.2226,102.9473 C4.1076,102.9473 3.1606,102.6713 1.2366,102.1993 L1.5976,98.6873 C2.9356,99.4143 4.4666,99.8843 5.9956,99.8843 C7.4766,99.8843 9.4586,99.1303 9.4586,97.3783 C9.4586,93.6673 0.9296,95.2013 0.9296,88.7613 C0.9296,84.4143 4.3006,82.8263 7.7286,82.8263 C9.4006,82.8263 10.9586,83.0483 12.3866,83.5213 L12.0196,86.7283 Z" id="Fill-3" fill="#017CE5" mask="url(#mask-2)"></path>
            <mask id="mask-4" fill="white">
                <use xlink:href="#path-3"></use>
            </mask>
            <g id="Clip-7"></g>
            <path d="M28.25,101.8084 C26.889,102.5584 25.328,102.9474 23.318,102.9474 C18.582,102.9474 15.822,100.2184 15.822,95.5074 C15.822,91.3554 18.023,87.9274 22.482,87.9274 C27.805,87.9274 29.311,91.5764 29.311,96.5974 L19.389,96.5974 C19.557,98.9084 21.17,100.2184 23.484,100.2184 C25.297,100.2184 26.855,99.5504 28.25,98.7734 L28.25,101.8084 Z M25.742,94.0274 C25.631,92.2224 24.799,90.6584 22.703,90.6584 C20.613,90.6584 19.557,92.1094 19.389,94.0274 L25.742,94.0274 Z" id="Fill-6" fill="#017CE5" mask="url(#mask-4)"></path>
            <mask id="mask-6" fill="white">
                <use xlink:href="#path-5"></use>
            </mask>
            <g id="Clip-10"></g>
            <path d="M38.8262,87.9275 C43.0902,87.9275 46.3472,90.8005 46.3472,95.5405 C46.3472,99.6635 43.5882,102.9475 38.8262,102.9475 C34.0862,102.9475 31.3242,99.6635 31.3242,95.5405 C31.3242,90.8005 34.5862,87.9275 38.8262,87.9275 M38.8262,100.0525 C41.6952,100.0525 42.4472,97.4825 42.4472,95.0915 C42.4472,92.8865 41.2792,90.8235 38.8262,90.8235 C36.3962,90.8235 35.2262,92.9435 35.2262,95.0915 C35.2262,97.4605 35.9802,100.0525 38.8262,100.0525" id="Fill-9" fill="#017CE5" mask="url(#mask-6)"></path>
            <path d="M62.4707,102.613 L58.9317,102.613 L58.9317,100.664 L58.8747,100.664 C57.7367,102.058 56.1187,102.947 54.1657,102.947 C50.7637,102.947 49.2827,100.55 49.2827,97.322 L49.2827,88.256 L53.0237,88.256 L53.0237,95.926 C53.0237,97.681 53.0467,100.052 55.4437,100.052 C58.1487,100.052 58.7327,97.123 58.7327,95.285 L58.7327,88.256 L62.4707,88.256 L62.4707,102.613 Z" id="Fill-12" fill="#017CE5" mask="url(#mask-6)"></path>
            <mask id="mask-8" fill="white">
                <use xlink:href="#path-7"></use>
            </mask>
            <g id="Clip-15"></g>
            <polygon id="Fill-14" fill="#017CE5" mask="url(#mask-8)" points="66.412 102.613 70.144 102.613 70.144 81.713 66.412 81.713"></polygon>
            <polygon id="Fill-16" fill="#017CE5" mask="url(#mask-8)" points="82.168 83.1599 92.982 83.1599 92.982 86.2239 86.066 86.2239 86.066 91.0209 92.648 91.0209 92.648 94.0919 86.066 94.0919 86.066 102.6129 82.168 102.6129"></polygon>
            <path d="M102.3555,87.9275 C106.6215,87.9275 109.8765,90.8005 109.8765,95.5405 C109.8765,99.6635 107.1215,102.9475 102.3555,102.9475 C97.6155,102.9475 94.8555,99.6635 94.8555,95.5405 C94.8555,90.8005 98.1155,87.9275 102.3555,87.9275 M102.3555,100.0525 C105.2285,100.0525 105.9765,97.4825 105.9765,95.0915 C105.9765,92.8865 104.8085,90.8235 102.3555,90.8235 C99.9275,90.8235 98.7575,92.9435 98.7575,95.0915 C98.7575,97.4605 99.5115,100.0525 102.3555,100.0525" id="Fill-17" fill="#017CE5" mask="url(#mask-8)"></path>
            <path d="M126.0039,102.613 L122.4609,102.613 L122.4609,100.664 L122.4039,100.664 C121.2639,102.058 119.6449,102.947 117.6949,102.947 C114.2909,102.947 112.8159,100.55 112.8159,97.322 L112.8159,88.256 L116.5489,88.256 L116.5489,95.926 C116.5489,97.681 116.5779,100.052 118.9749,100.052 C121.6819,100.052 122.2639,97.123 122.2639,95.285 L122.2639,88.256 L126.0039,88.256 L126.0039,102.613 Z" id="Fill-18" fill="#017CE5" mask="url(#mask-8)"></path>
            <path d="M129.8536,88.2556 L133.3946,88.2556 L133.3946,90.2106 L133.4496,90.2106 C134.6216,88.5696 136.2086,87.9276 138.1606,87.9276 C141.5626,87.9276 143.0426,90.3236 143.0426,93.5606 L143.0426,102.6126 L139.3066,102.6126 L139.3066,94.9546 C139.3066,93.1966 139.2796,90.8236 136.8826,90.8236 C134.1756,90.8236 133.5896,93.7536 133.5896,95.5896 L133.5896,102.6126 L129.8536,102.6126 L129.8536,88.2556 Z" id="Fill-19" fill="#017CE5" mask="url(#mask-8)"></path>
            <path d="M156.459,100.9998 L156.402,100.9998 C155.285,102.3958 153.754,102.9468 151.996,102.9468 C147.592,102.9468 145.975,99.3298 145.975,95.3948 C145.975,91.4358 147.592,87.9258 151.996,87.9258 C153.863,87.9258 155.174,88.5658 156.289,89.9368 L156.346,89.9368 L156.346,81.7088 L160.082,81.7088 L160.082,102.6128 L156.459,102.6128 L156.459,100.9998 Z M153.027,100.0508 C155.514,100.0508 156.314,97.4318 156.314,95.3948 C156.314,93.3868 155.369,90.8238 152.971,90.8238 C150.549,90.8238 149.877,93.4728 149.877,95.3948 C149.877,97.3788 150.576,100.0508 153.027,100.0508 Z" id="Fill-20" fill="#017CE5" mask="url(#mask-8)"></path>
            <path d="M164.5782,89.0154 C166.0272,88.3494 167.9742,87.9274 169.5642,87.9274 C173.9392,87.9274 175.7542,89.7324 175.7542,93.9784 L175.7542,95.8144 C175.7542,97.2634 175.7852,98.3494 175.8102,99.4114 C175.8362,100.4974 175.8942,101.5014 175.9802,102.6134 L172.6892,102.6134 C172.5492,101.8634 172.5492,100.9154 172.5172,100.4684 L172.4672,100.4684 C171.5992,102.0544 169.7302,102.9474 168.0332,102.9474 C165.5002,102.9474 163.0142,101.4174 163.0142,98.6874 C163.0142,96.5384 164.0472,95.2864 165.4732,94.5874 C166.8912,93.8924 168.7282,93.7534 170.2932,93.7534 L172.3512,93.7534 C172.3512,91.4354 171.3242,90.6564 169.1232,90.6564 C167.5332,90.6564 165.9452,91.2734 164.6912,92.2224 L164.5782,89.0154 Z M168.9512,100.2184 C170.0982,100.2184 170.9882,99.7164 171.5722,98.9354 C172.1872,98.1304 172.3512,97.0994 172.3512,95.9824 L170.7382,95.9824 C169.0642,95.9824 166.5842,96.2614 166.5842,98.4624 C166.5842,99.6894 167.6152,100.2184 168.9512,100.2184 Z" id="Fill-21" fill="#017CE5" mask="url(#mask-8)"></path>
            <path d="M180.668,90.9959 L177.908,90.9959 L177.908,88.2559 L180.668,88.2559 L180.668,85.3889 L184.404,84.1889 L184.404,88.2559 L187.721,88.2559 L187.721,90.9959 L184.404,90.9959 L184.404,97.6819 C184.404,98.9119 184.738,100.0509 186.156,100.0509 C186.824,100.0509 187.469,99.9119 187.861,99.6619 L187.971,102.6129 C187.189,102.8399 186.328,102.9469 185.213,102.9469 C182.285,102.9469 180.668,101.1409 180.668,98.2909 L180.668,90.9959 Z" id="Fill-22" fill="#017CE5" mask="url(#mask-8)"></path>
            <path d="M190.371,85.644 L194.109,85.644 L194.109,82.076 L190.371,82.076 L190.371,85.644 Z M190.371,102.615 L194.109,102.615 L194.109,88.256 L190.371,88.256 L190.371,102.615 Z" id="Fill-23" fill="#017CE5" mask="url(#mask-8)"></path>
            <path d="M204.6211,87.9275 C208.8891,87.9275 212.1421,90.8005 212.1421,95.5405 C212.1421,99.6635 209.3891,102.9475 204.6211,102.9475 C199.8811,102.9475 197.1251,99.6635 197.1251,95.5405 C197.1251,90.8005 200.3851,87.9275 204.6211,87.9275 M204.6211,100.0525 C207.4941,100.0525 208.2441,97.4825 208.2441,95.0915 C208.2441,92.8865 207.0761,90.8235 204.6211,90.8235 C202.1951,90.8235 201.0251,92.9435 201.0251,95.0915 C201.0251,97.4605 201.7771,100.0525 204.6211,100.0525" id="Fill-24" fill="#017CE5" mask="url(#mask-8)"></path>
            <path d="M215.0801,88.2556 L218.6211,88.2556 L218.6211,90.2106 L218.6761,90.2106 C219.8481,88.5696 221.4341,87.9276 223.3891,87.9276 C226.7891,87.9276 228.2641,90.3236 228.2641,93.5606 L228.2641,102.6126 L224.5331,102.6126 L224.5331,94.9546 C224.5331,93.1966 224.5021,90.8236 222.1051,90.8236 C219.4021,90.8236 218.8161,93.7536 218.8161,95.5896 L218.8161,102.6126 L215.0801,102.6126 L215.0801,88.2556 Z" id="Fill-25" fill="#017CE5" mask="url(#mask-8)"></path>
            <path d="M241.2325,90.9959 L238.4725,90.9959 L238.4725,88.2559 L241.2325,88.2559 L241.2325,86.2579 C241.2325,83.3809 242.8475,81.3769 245.8005,81.3769 C246.7525,81.3769 247.8085,81.5159 248.5375,81.6829 L248.2285,84.7809 C247.8945,84.5859 247.4195,84.2749 246.6135,84.2749 C245.3595,84.2749 244.9685,85.3609 244.9685,86.4749 L244.9685,88.2559 L248.2285,88.2559 L248.2285,90.9959 L244.9685,90.9959 L244.9685,102.6129 L241.2325,102.6129 L241.2325,90.9959 Z" id="Fill-26" fill="#017CE5" mask="url(#mask-8)"></path>
            <path d="M257.295,87.9275 C261.557,87.9275 264.816,90.8005 264.816,95.5405 C264.816,99.6635 262.057,102.9475 257.295,102.9475 C252.557,102.9475 249.795,99.6635 249.795,95.5405 C249.795,90.8005 253.059,87.9275 257.295,87.9275 M257.295,100.0525 C260.164,100.0525 260.916,97.4825 260.916,95.0915 C260.916,92.8865 259.748,90.8235 257.295,90.8235 C254.871,90.8235 253.699,92.9435 253.699,95.0915 C253.699,97.4605 254.453,100.0525 257.295,100.0525" id="Fill-27" fill="#017CE5" mask="url(#mask-8)"></path>
            <path d="M267.8438,88.2556 L271.1548,88.2556 L271.1548,91.5236 L271.2108,91.5236 C271.3748,90.1876 272.9098,87.9276 275.1428,87.9276 C275.5018,87.9276 275.8968,87.9276 276.2828,88.0386 L276.2828,91.8046 C275.9478,91.6076 275.2808,91.4956 274.6078,91.4956 C271.5708,91.4956 271.5708,95.2846 271.5708,97.3496 L271.5708,102.6126 L267.8438,102.6126 L267.8438,88.2556 Z" id="Fill-28" fill="#017CE5" mask="url(#mask-8)"></path>
            <path d="M292.2696,83.1599 L296.6716,83.1599 L304.3066,102.6129 L299.9866,102.6129 L298.3106,98.1559 L290.4276,98.1559 L288.7286,102.6129 L284.6836,102.6129 L292.2696,83.1599 Z M294.4116,87.0639 L294.3536,87.0639 L291.5426,95.0919 L297.2286,95.0919 L294.4116,87.0639 Z" id="Fill-29" fill="#017CE5" mask="url(#mask-8)"></path>
            <path d="M306.5762,88.2556 L309.8922,88.2556 L309.8922,91.5236 L309.9472,91.5236 C310.1192,90.1876 311.6462,87.9276 313.8812,87.9276 C314.2442,87.9276 314.6352,87.9276 315.0192,88.0386 L315.0192,91.8046 C314.6872,91.6076 314.0232,91.4956 313.3472,91.4956 C310.3082,91.4956 310.3082,95.2846 310.3082,97.3496 L310.3082,102.6126 L306.5762,102.6126 L306.5762,88.2556 Z" id="Fill-30" fill="#017CE5" mask="url(#mask-8)"></path>
            <path d="M318.5684,90.9959 L315.8044,90.9959 L315.8044,88.2559 L318.5684,88.2559 L318.5684,85.3889 L322.3024,84.1889 L322.3024,88.2559 L325.6114,88.2559 L325.6114,90.9959 L322.3024,90.9959 L322.3024,97.6819 C322.3024,98.9119 322.6384,100.0509 324.0564,100.0509 C324.7204,100.0509 325.3674,99.9119 325.7544,99.6619 L325.8694,102.6129 C325.0864,102.8399 324.2244,102.9469 323.1074,102.9469 C320.1794,102.9469 318.5684,101.1409 318.5684,98.2909 L318.5684,90.9959 Z" id="Fill-31" fill="#017CE5" mask="url(#mask-8)"></path>
            <path d="M336.7168,91.2732 C335.5738,90.8802 334.7348,90.6562 333.3748,90.6562 C332.3688,90.6562 331.1678,91.0192 331.1678,92.2482 C331.1678,94.5312 337.6598,93.0802 337.6598,98.2672 C337.6598,101.6152 334.6798,102.9472 331.6448,102.9472 C330.2208,102.9472 328.7778,102.6992 327.4118,102.3392 L327.6288,99.2672 C328.7988,99.8532 330.0238,100.2202 331.3108,100.2202 C332.2558,100.2202 333.7618,99.8532 333.7618,98.4622 C333.7618,95.6462 327.2678,97.5722 327.2678,92.3882 C327.2678,89.2962 329.9708,87.9272 332.8988,87.9272 C334.6508,87.9272 335.7948,88.2072 336.9688,88.4572 L336.7168,91.2732 Z" id="Fill-32" fill="#017CE5" mask="url(#mask-8)"></path>
            <path d="M348.961,89.0154 C350.41,88.3494 352.365,87.9274 353.953,87.9274 C358.328,87.9274 360.143,89.7324 360.143,93.9784 L360.143,95.8144 C360.143,97.2634 360.166,98.3494 360.195,99.4114 C360.229,100.4974 360.281,101.5014 360.363,102.6134 L357.074,102.6134 C356.93,101.8634 356.93,100.9154 356.906,100.4684 L356.85,100.4684 C355.99,102.0544 354.121,102.9474 352.418,102.9474 C349.879,102.9474 347.406,101.4174 347.406,98.6874 C347.406,96.5384 348.432,95.2864 349.854,94.5874 C351.277,93.8924 353.113,93.7534 354.678,93.7534 L356.742,93.7534 C356.742,91.4354 355.703,90.6564 353.506,90.6564 C351.918,90.6564 350.33,91.2734 349.074,92.2224 L348.961,89.0154 Z M353.342,100.2184 C354.482,100.2184 355.377,99.7164 355.959,98.9354 C356.574,98.1304 356.742,97.0994 356.742,95.9824 L355.119,95.9824 C353.449,95.9824 350.971,96.2614 350.971,98.4624 C350.971,99.6894 352,100.2184 353.342,100.2184 Z" id="Fill-33" fill="#017CE5" mask="url(#mask-8)"></path>
            <path d="M363.8282,88.2556 L367.3652,88.2556 L367.3652,90.2106 L367.4222,90.2106 C368.5992,88.5696 370.1822,87.9276 372.1312,87.9276 C375.5352,87.9276 377.0162,90.3236 377.0162,93.5606 L377.0162,102.6126 L373.2752,102.6126 L373.2752,94.9546 C373.2752,93.1966 373.2522,90.8236 370.8532,90.8236 C368.1462,90.8236 367.5662,93.7536 367.5662,95.5896 L367.5662,102.6126 L363.8282,102.6126 L363.8282,88.2556 Z" id="Fill-34" fill="#017CE5" mask="url(#mask-8)"></path>
            <path d="M390.4239,100.9998 L390.3709,100.9998 C389.2559,102.3958 387.7249,102.9468 385.9689,102.9468 C381.5589,102.9468 379.9439,99.3298 379.9439,95.3948 C379.9439,91.4358 381.5589,87.9258 385.9689,87.9258 C387.8359,87.9258 389.1489,88.5658 390.2559,89.9368 L390.3199,89.9368 L390.3199,81.7088 L394.0469,81.7088 L394.0469,102.6128 L390.4239,102.6128 L390.4239,100.9998 Z M387.0019,100.0508 C389.4809,100.0508 390.2889,97.4318 390.2889,95.3948 C390.2889,93.3868 389.3439,90.8238 386.9419,90.8238 C384.5179,90.8238 383.8539,93.4728 383.8539,95.3948 C383.8539,97.3788 384.5469,100.0508 387.0019,100.0508 Z" id="Fill-35" fill="#017CE5" mask="url(#mask-8)"></path>
            <path d="M420.1563,102.3396 C418.7303,102.6716 417.1993,102.9466 415.7223,102.9466 C409.4223,102.9466 405.0453,99.7986 405.0453,93.2226 C405.0453,86.5606 409.1173,82.8256 415.7223,82.8256 C417.0103,82.8256 418.7033,83.0756 420.1253,83.6326 L419.8493,86.9236 C418.3693,86.0876 417.0313,85.8886 415.6363,85.8886 C411.6253,85.8886 409.1173,88.9606 409.1173,92.9446 C409.1173,96.9006 411.5683,99.8846 415.7223,99.8846 C417.2563,99.8846 419.0683,99.5506 419.9883,99.0716 L420.1563,102.3396 Z" id="Fill-36" fill="#017CE5" mask="url(#mask-8)"></path>
            <path d="M435.8848,102.613 L432.3418,102.613 L432.3418,100.664 L432.2908,100.664 C431.1468,102.058 429.5308,102.947 427.5778,102.947 C424.1798,102.947 422.7028,100.55 422.7028,97.322 L422.7028,88.256 L426.4358,88.256 L426.4358,95.926 C426.4358,97.681 426.4588,100.052 428.8598,100.052 C431.5668,100.052 432.1488,97.123 432.1488,95.285 L432.1488,88.256 L435.8848,88.256 L435.8848,102.613 Z" id="Fill-37" fill="#017CE5" mask="url(#mask-8)"></path>
            <polygon id="Fill-38" fill="#017CE5" mask="url(#mask-8)" points="439.822 102.613 443.562 102.613 443.562 81.713 439.822 81.713"></polygon>
            <path d="M448.7188,90.9959 L445.9568,90.9959 L445.9568,88.2559 L448.7188,88.2559 L448.7188,85.3889 L452.4548,84.1889 L452.4548,88.2559 L455.7698,88.2559 L455.7698,90.9959 L452.4548,90.9959 L452.4548,97.6819 C452.4548,98.9119 452.7848,100.0509 454.2108,100.0509 C454.8788,100.0509 455.5238,99.9119 455.9078,99.6619 L456.0178,102.6129 C455.2408,102.8399 454.3788,102.9469 453.2678,102.9469 C450.3378,102.9469 448.7188,101.1409 448.7188,98.2909 L448.7188,90.9959 Z" id="Fill-39" fill="#017CE5" mask="url(#mask-8)"></path>
            <path d="M471.5235,102.613 L467.9865,102.613 L467.9865,100.664 L467.9255,100.664 C466.7875,102.058 465.1665,102.947 463.2185,102.947 C459.8145,102.947 458.3375,100.55 458.3375,97.322 L458.3375,88.256 L462.0705,88.256 L462.0705,95.926 C462.0705,97.681 462.1015,100.052 464.5005,100.052 C467.2055,100.052 467.7875,97.123 467.7875,95.285 L467.7875,88.256 L471.5235,88.256 L471.5235,102.613 Z" id="Fill-40" fill="#017CE5" mask="url(#mask-8)"></path>
            <path d="M475.4649,88.2556 L478.7789,88.2556 L478.7789,91.5236 L478.8359,91.5236 C479.0079,90.1876 480.5389,87.9276 482.7659,87.9276 C483.1289,87.9276 483.5219,87.9276 483.9079,88.0386 L483.9079,91.8046 C483.5759,91.6076 482.9059,91.4956 482.2379,91.4956 C479.1989,91.4956 479.1989,95.2846 479.1989,97.3496 L479.1989,102.6126 L475.4649,102.6126 L475.4649,88.2556 Z" id="Fill-41" fill="#017CE5" mask="url(#mask-8)"></path>
            <path d="M497.2403,101.8084 C495.8713,102.5584 494.3123,102.9474 492.3043,102.9474 C487.5683,102.9474 484.8043,100.2184 484.8043,95.5074 C484.8043,91.3554 487.0073,87.9274 491.4683,87.9274 C496.7893,87.9274 498.2993,91.5764 498.2993,96.5974 L488.3773,96.5974 C488.5453,98.9084 490.1563,100.2184 492.4673,100.2184 C494.2833,100.2184 495.8453,99.5504 497.2403,98.7734 L497.2403,101.8084 Z M494.7303,94.0274 C494.6193,92.2224 493.7833,90.6584 491.6913,90.6584 C489.6033,90.6584 488.5453,92.1094 488.3773,94.0274 L494.7303,94.0274 Z" id="Fill-42" fill="#017CE5" mask="url(#mask-8)"></path>
            <path d="M51.07,13.34 L56.756,13.34 L56.756,7.68 L51.07,7.68 L51.07,13.34 Z M46.158,18.226 L61.672,18.226 L61.672,2.792 L46.158,2.792 L46.158,18.226 Z" id="Fill-43" fill="#017CE5" mask="url(#mask-8)"></path>
            <polygon id="Fill-44" fill="#017CE5" mask="url(#mask-8)" points="72.0118 7.9392 72.0118 2.7942 66.8398 2.7942 66.8398 13.0782 77.1798 13.0782 77.1798 7.9392"></polygon>
            <polygon id="Fill-45" fill="#017CE5" mask="url(#mask-8)" points="51.3282 38.7908 51.3282 33.6498 46.1562 33.6498 46.1562 43.9358 56.5022 43.9358 56.5022 38.7908"></polygon>
            <polygon id="Fill-46" fill="#017CE5" mask="url(#mask-8)" points="51.3282 28.5115 51.3282 33.6505 56.5022 33.6505 56.5022 23.3635 46.1562 23.3635 46.1562 28.5115"></polygon>
            <polygon id="Fill-47" fill="#017CE5" mask="url(#mask-8)" points="92.6914 23.363 87.5214 23.363 87.5214 18.226 82.3474 18.226 82.3474 33.65 87.5214 33.65 87.5214 28.511 92.6914 28.511"></polygon>
            <path d="M69.4258,22.8533 C71.1408,22.8533 72.5298,24.2343 72.5298,25.9373 C72.5298,27.6443 71.1408,29.0253 69.4258,29.0253 C67.7108,29.0253 66.3188,27.6443 66.3188,25.9373 C66.3188,24.2343 67.7108,22.8533 69.4258,22.8533 Z M72.0098,33.2103 C75.0218,32.1563 77.1798,29.2963 77.1798,25.9373 C77.1798,21.6773 73.7088,18.2263 69.4258,18.2263 C65.1388,18.2263 61.6698,21.6773 61.6698,25.9373 C61.6698,29.2963 63.8298,32.1563 66.8398,33.2103 L66.8398,38.7943 L61.6698,38.7943 L61.6698,43.9353 L77.1798,43.9353 L77.1798,38.7943 L72.0098,38.7943 L72.0098,33.2103 Z" id="Fill-48" fill="#017CE5" mask="url(#mask-8)"></path>
            <polygon id="Fill-49" fill="#017CE5" mask="url(#mask-8)" points="35.8164 49.0837 35.8164 43.9357 30.6424 43.9357 30.6424 54.2247 40.9844 54.2247 40.9844 49.0837"></polygon>
            <polygon id="Fill-50" fill="#017CE5" mask="url(#mask-8)" points="20.3067 28.5115 20.3067 38.7945 25.4767 38.7945 25.4767 23.3635 15.1367 23.3635 15.1367 28.5115"></polygon>
            <polygon id="Fill-51" fill="#017CE5" mask="url(#mask-8)" points="40.9844 28.5115 40.9844 23.3635 30.6424 23.3635 30.6424 38.7945 35.8164 38.7945 35.8164 43.9395 40.9844 43.9395 40.9844 33.6505 35.8164 33.6505 35.8164 28.5115"></polygon>
            <polygon id="Fill-52" fill="#017CE5" mask="url(#mask-8)" points="92.6914 43.9353 92.6914 38.7903 82.3474 38.7903 82.3474 54.2243 92.6914 54.2243 92.6914 49.0803 87.5214 49.0803 87.5214 43.9353"></polygon>
            <polygon id="Fill-53" fill="#017CE5" mask="url(#mask-8)" points="97.8633 59.367 97.8633 54.224 92.6953 54.224 92.6953 64.508 103.0313 64.508 103.0313 59.367"></polygon>
            <polygon id="Fill-54" fill="#017CE5" mask="url(#mask-8)" points="72.0118 54.2244 72.0118 49.0834 66.8398 49.0834 66.8398 64.5074 72.0118 64.5074 72.0118 59.3674 77.1798 59.3674 77.1798 64.5074 82.3498 64.5074 82.3498 54.2244"></polygon>
            <polygon id="Fill-55" fill="#017CE5" mask="url(#mask-8)" points="108.2012 43.9353 103.0312 43.9353 103.0312 38.7903 97.8632 38.7903 97.8632 54.2243 103.0312 54.2243 103.0312 49.0803 108.2012 49.0803"></polygon>
            <polygon id="Fill-56" fill="#017CE5" mask="url(#mask-8)" points="57.3672 54.2244 61.6722 54.2244 61.6722 49.0834 46.1582 49.0834 46.1582 54.2244 50.4592 54.2244 45.9512 64.5074 51.3672 64.5074 53.9102 58.7014 56.4592 64.5074 61.8752 64.5074"></polygon>
            <path d="M33.2325,13.5916 C31.5155,13.5916 30.1285,12.2106 30.1285,10.5096 C30.1285,8.8026 31.5155,7.4256 33.2325,7.4256 C34.9475,7.4256 36.3325,8.8026 36.3325,10.5096 C36.3325,12.2106 34.9475,13.5916 33.2325,13.5916 M33.2325,2.7946 C28.9475,2.7946 25.4765,6.2476 25.4765,10.5096 C25.4765,14.7736 28.9475,18.2266 33.2325,18.2266 C37.5155,18.2266 40.9845,14.7736 40.9845,10.5096 C40.9845,6.2476 37.5155,2.7946 33.2325,2.7946" id="Fill-57" fill="#017CE5" mask="url(#mask-8)"></path>
            <polygon id="Fill-58" fill="#017CE5" mask="url(#mask-8)" points="-1 38.7908 4.484 38.7908 7.379 31.5998 10.27 38.7908 15.756 38.7908 7.379 20.2788"></polygon>
            <polygon id="Fill-59" fill="#017CE5" mask="url(#mask-8)" points="124.127 64.509 125.273 64.509 125.273 2.792 124.127 2.792"></polygon>
            <path d="M62.4707,102.613 L58.9317,102.613 L58.9317,100.664 L58.8747,100.664 C57.7367,102.058 56.1187,102.947 54.1657,102.947 C50.7637,102.947 49.2827,100.55 49.2827,97.322 L49.2827,88.256 L53.0237,88.256 L53.0237,95.926 C53.0237,97.681 53.0467,100.052 55.4437,100.052 C58.1487,100.052 58.7327,97.123 58.7327,95.285 L58.7327,88.256 L62.4707,88.256 L62.4707,102.613 Z" id="Fill-12" fill="#017CE5" mask="url(#mask-8)"></path>
        </g>
    </g>
</svg>