<?xml version="1.0" encoding="UTF-8"?>
<svg width="460px" height="262px" viewBox="0 0 460 262" version="1.1" xmlns="http://www.w3.org/2000/svg" xmlns:xlink="http://www.w3.org/1999/xlink">
    <!-- Generator: Sketch 49.3 (51167) - http://www.bohemiancoding.com/sketch -->
    <title>Group 8</title>
    <desc>Created with Sketch.</desc>
    <defs></defs>
    <g id="181204" stroke="none" stroke-width="1" fill="none" fill-rule="evenodd">
        <g id="Group-8" fill="#017CE5">
            <path d="M198.617,65.333 L263.948,65.333 L263.948,0 L198.617,0 L198.617,65.333 Z M219.302,44.646 L243.26,44.646 L243.26,20.689 L219.302,20.689 L219.302,44.646 Z" id="Fill-1"></path>
            <polygon id="Fill-2" points="285.7257 0.0003 285.7257 43.5543 329.2817 43.5543 329.2817 21.7793 307.5077 21.7793 307.5077 0.0003"></polygon>
            <polygon id="Fill-3" points="394.6143 174.2217 394.6143 152.4447 351.0573 152.4447 351.0573 217.7737 394.6143 217.7737 394.6143 196.0007 372.8353 196.0007 372.8353 174.2217"></polygon>
            <polygon id="Fill-4" points="155.0576 196.001 155.0576 174.222 133.2786 174.222 133.2786 217.774 176.8356 217.774 176.8356 196.001"></polygon>
            <polygon id="Fill-5" points="394.614 217.7733 394.614 261.3363 438.171 261.3363 438.171 239.5533 416.392 239.5533 416.392 217.7733"></polygon>
            <polygon id="Fill-6" points="220.3897 152.4444 220.3897 130.6704 198.6177 130.6704 198.6177 174.2214 242.1687 174.2214 242.1687 152.4444"></polygon>
            <polygon id="Fill-7" points="220.3897 108.8902 220.3897 130.6702 242.1687 130.6702 242.1687 87.1152 198.6177 87.1152 198.6177 108.8902"></polygon>
            <polygon id="Fill-8" points="89.7246 108.8902 89.7246 152.4442 111.5016 152.4442 111.5016 87.1152 67.9456 87.1152 67.9456 108.8902"></polygon>
            <polygon id="Fill-9" points="176.8355 108.8902 176.8355 87.1152 133.2785 87.1152 133.2785 152.4442 155.0575 152.4442 155.0575 174.2212 176.8355 174.2212 176.8355 130.6702 155.0575 130.6702 155.0575 108.8902"></polygon>
            <polygon id="Fill-10" points="285.7257 196.0014 285.7257 261.3364 307.5077 261.3364 307.5077 239.5534 329.2817 239.5534 329.2817 261.3364 351.0607 261.3364 351.0607 217.7734 307.5077 217.7734 307.5077 196.0014"></polygon>
            <polygon id="Fill-11" points="394.6143 87.1153 372.8353 87.1153 372.8353 65.3333 351.0573 65.3333 351.0573 130.6703 372.8353 130.6703 372.8353 108.8903 394.6143 108.8903"></polygon>
            <polygon id="Fill-12" points="416.3922 152.4441 416.3922 217.7731 438.1712 217.7731 438.1712 196.0011 459.9492 196.0011 459.9492 174.2211 438.1712 174.2211 438.1712 152.4441"></polygon>
            <polygon id="Fill-13" points="198.6174 196.0014 198.6174 217.7734 216.7354 217.7734 197.7444 261.3364 220.5504 261.3364 231.2824 236.7274 242.0104 261.3364 264.8194 261.3364 245.8264 217.7734 263.9484 217.7734 263.9484 196.0014"></polygon>
            <path d="M296.6143,84.9346 C303.8273,84.9346 309.6813,90.7816 309.6813,97.9996 C309.6813,105.2166 303.8273,111.0716 296.6143,111.0716 C289.3983,111.0716 283.5453,105.2166 283.5453,97.9996 C283.5453,90.7816 289.3983,84.9346 296.6143,84.9346 Z M307.5083,128.8056 C320.1923,124.3216 329.2823,112.2226 329.2823,97.9996 C329.2823,79.9586 314.6543,65.3326 296.6143,65.3326 C278.5683,65.3326 263.9483,79.9586 263.9483,97.9996 C263.9483,112.2226 273.0383,124.3216 285.7253,128.8056 L285.7253,152.4446 L263.9483,152.4446 L263.9483,174.2216 L329.2823,174.2216 L329.2823,152.4446 L307.5083,152.4446 L307.5083,128.8056 Z" id="Fill-14"></path>
            <path d="M144.1704,45.7364 C136.9484,45.7364 131.1004,39.8834 131.1004,32.6664 C131.1004,25.4544 136.9484,19.6014 144.1704,19.6014 C151.3824,19.6014 157.2344,25.4544 157.2344,32.6664 C157.2344,39.8834 151.3824,45.7364 144.1704,45.7364 M144.1704,0.0004 C126.1264,0.0004 111.5024,14.6274 111.5024,32.6664 C111.5024,50.7094 126.1264,65.3334 144.1704,65.3334 C162.2124,65.3334 176.8354,50.7094 176.8354,32.6664 C176.8354,14.6274 162.2124,0.0004 144.1704,0.0004" id="Fill-16"></path>
            <polygon id="Fill-18" points="35.2803 74.043 0.0003 152.444 23.0973 152.444 35.2803 121.956 47.4653 152.444 70.5613 152.444"></polygon>
        </g>
    </g>
</svg>